<svg preserveAspectRatio="none" width="100%" height="100%" overflow="visible" style="display: block;" viewBox="0 0 695 1024" fill="none" xmlns="http://www.w3.org/2000/svg">
<g id="Sidebar">
<rect width="695" height="1024" fill="#1C1C1E"/>
<path id="Vector" d="M348.035 321C400.638 321 451.092 341.119 488.288 376.938C494.964 383.367 501.109 390.211 506.708 397.4H348.035C316.472 397.4 286.202 409.473 263.884 430.964C241.567 452.457 229.029 481.606 229.029 512H348.035L515.735 410C528.185 428.986 537.066 449.951 541.961 471.916L467.04 512H546.377L546.318 516.747C545.057 565.683 524.321 612.363 488.288 647.062C451.092 682.881 400.638 703 348.035 703C295.431 703 244.977 682.881 207.781 647.062C201.105 640.633 194.96 633.789 189.361 626.6H348.035C379.597 626.6 409.867 614.527 432.185 593.036C453.108 572.886 465.436 546.006 466.895 517.679L467.04 512H348.035L180.335 613.982C167.885 594.995 159.024 574.028 154.128 552.065L229.029 512H149.692C149.692 461.344 170.585 412.758 207.781 376.938C244.977 341.119 295.431 321 348.035 321Z" fill="url(#paint0_linear_207_2630)"/>
</g>
<defs>
<linearGradient id="paint0_linear_207_2630" x1="229.35" y1="362.5" x2="432.347" y2="729.418" gradientUnits="userSpaceOnUse">
<stop stopColor="#237AF8"/>
<stop offset="1" stopColor="#012559"/>
</linearGradient>
</defs>
</svg>
